<?xml version="1.0" encoding="UTF-8" standalone="no"?>
<!-- Created with Inkscape (http://www.inkscape.org/) -->

<svg
   width="15.999999"
   height="16"
   viewBox="0 0 4.233333 4.2333332"
   version="1.1"
   id="svg1"
   xmlns="http://www.w3.org/2000/svg"
   xmlns:svg="http://www.w3.org/2000/svg">
  <defs
     id="defs1" />
  <g
     id="layer1">
    <path
       d="m 1.2447369,1.7714005 q 0,0.1074871 -0.040308,0.2136306 Q 1.1641215,2.089831 1.0794754,2.1731335 0.99482934,2.256436 0.86315763,2.308836 0.73148593,2.3598924 0.54875785,2.3598924 H 0.33109646 V 2.9900355 H 0.09193765 V 1.233965 h 0.49444069 q 0.13032811,0 0.24990752,0.029559 0.1195794,0.028215 0.20959984,0.092708 0.091364,0.064492 0.1451076,0.1666051 0.053744,0.1021127 0.053744,0.2485634 z m -0.24856398,0.010749 q 0,-0.1692922 -0.11151787,-0.2593126 Q 0.77448077,1.4328161 0.57562963,1.4328161 H 0.33109646 v 0.7228508 h 0.22303575 q 0.21228703,0 0.32649208,-0.092708 0.11554863,-0.092708 0.11554863,-0.2808094 z M 2.789864,1.4381905 H 2.2698952 v 1.551845 H 2.0280492 V 1.4381905 H 1.5080803 V 1.233965 H 2.789864 Z M 4.2422836,2.9241997 Q 4.0313401,3.011533 3.8002429,3.011533 3.4280688,3.011533 3.227874,2.7898408 3.0290229,2.5668051 3.0290229,2.1314823 q 0,-0.2109435 0.055087,-0.3815792 0.055087,-0.1706358 0.1571999,-0.2888716 0.1021128,-0.1195794 0.2472203,-0.1840717 0.1451076,-0.064492 0.3251485,-0.064492 0.1222666,0 0.2270665,0.021497 0.1048,0.020154 0.2015384,0.063149 v 0.2351281 q -0.095395,-0.0524 -0.1975076,-0.079272 -0.1021127,-0.028215 -0.2230357,-0.028215 -0.1236102,0 -0.2243794,0.047026 -0.099426,0.045682 -0.1692921,0.1343589 -0.069867,0.087333 -0.1074872,0.2149742 -0.03762,0.1262973 -0.03762,0.2888716 0,0.3412715 0.1383896,0.5145945 0.1383897,0.1733229 0.4057638,0.1733229 0.1128615,0 0.2163178,-0.025528 0.1034564,-0.026872 0.1988512,-0.073897 z"
       id="text1"
       style="font-size:2.75167px;font-family:Consolas;-inkscape-font-specification:'Consolas, Normal';fill:#178bb3;stroke-width:0.347755"
       transform="scale(0.99779557,1.0022093)"
       aria-label="PTC" />
  </g>
</svg>
