<?xml version="1.0" encoding="UTF-8" standalone="no"?>
<!-- Created with Inkscape (http://www.inkscape.org/) -->

<svg
   width="15.999999"
   height="16"
   viewBox="0 0 4.233333 4.2333332"
   version="1.1"
   id="svg1"
   xmlns="http://www.w3.org/2000/svg"
   xmlns:svg="http://www.w3.org/2000/svg">
  <defs
     id="defs1" />
  <g
     id="layer1">
    <path
       d="M 1.276983,1.4381905 H 0.75701412 v 1.551845 H 0.51516813 V 1.4381905 H -0.00480074 V 1.233965 H 1.276983 Z m 1.5276605,1.551845 H 2.5345822 L 2.2725823,2.4284154 Q 2.2430234,2.3639231 2.2121208,2.3222719 2.1812183,2.2792771 2.1449414,2.2550925 2.1100081,2.2295643 2.0670132,2.2188156 2.025362,2.2080668 1.972962,2.2080668 H 1.8601006 V 2.9900355 H 1.6209418 V 1.233965 h 0.470256 q 0.1531692,0 0.2633435,0.03359 0.1101742,0.03359 0.1800409,0.094051 0.07121,0.060461 0.1034563,0.1464512 0.03359,0.084646 0.03359,0.1881024 0,0.081959 -0.024185,0.1558563 -0.024185,0.072554 -0.072554,0.1330153 -0.047026,0.059118 -0.1182358,0.1034563 -0.069867,0.042995 -0.1612307,0.064492 0.073897,0.025528 0.1249538,0.090021 0.0524,0.063149 0.1061435,0.1692921 z M 2.4217207,1.7163133 q 0,-0.1410768 -0.088677,-0.2109434 -0.087333,-0.069867 -0.2472203,-0.069867 H 1.8601006 v 0.5804303 h 0.1934768 q 0.084646,0 0.1518255,-0.01881 0.068523,-0.020154 0.1155486,-0.057774 0.048369,-0.038964 0.073897,-0.094051 0.026872,-0.056431 0.026872,-0.1289849 z M 4.2422836,2.9241997 Q 4.0313401,3.011533 3.8002429,3.011533 3.4280688,3.011533 3.227874,2.7898408 3.0290229,2.5668051 3.0290229,2.1314823 q 0,-0.2109435 0.055087,-0.3815792 0.055087,-0.1706358 0.1571999,-0.2888716 0.1021128,-0.1195794 0.2472203,-0.1840717 0.1451076,-0.064492 0.3251485,-0.064492 0.1222666,0 0.2270665,0.021497 0.1048,0.020154 0.2015384,0.063149 v 0.2351281 q -0.095395,-0.0524 -0.1975076,-0.079272 -0.1021127,-0.028215 -0.2230357,-0.028215 -0.1236102,0 -0.2243794,0.047026 -0.099426,0.045682 -0.1692921,0.1343589 -0.069867,0.087333 -0.1074872,0.2149742 -0.03762,0.1262973 -0.03762,0.2888716 0,0.3412715 0.1383896,0.5145945 0.1383897,0.1733229 0.4057638,0.1733229 0.1128615,0 0.2163178,-0.025528 0.1034564,-0.026872 0.1988512,-0.073897 z"
       id="text1"
       style="font-size:2.75167px;font-family:Consolas;-inkscape-font-specification:'Consolas, Normal';fill:#b317a0;stroke-width:0.347755"
       transform="scale(0.99779557,1.0022093)"
       aria-label="TRC" />
  </g>
</svg>
