<?xml version="1.0" encoding="UTF-8" standalone="no"?>
<!-- Created with Inkscape (http://www.inkscape.org/) -->

<svg
   width="15.999999"
   height="16"
   viewBox="0 0 4.233333 4.2333332"
   version="1.1"
   id="svg1"
   xmlns="http://www.w3.org/2000/svg"
   xmlns:svg="http://www.w3.org/2000/svg">
  <defs
     id="defs1" />
  <g
     id="layer1">
    <path
       d="m 1.231301,1.5349289 q -0.098082,-0.0524 -0.2015384,-0.080615 -0.10345629,-0.029559 -0.22572288,-0.029559 -0.13973323,0 -0.24856393,0.049713 Q 0.4466451,1.5241801 0.37140413,1.6155442 0.29750674,1.7055646 0.25719908,1.8332056 0.218235,1.9608465 0.218235,2.1153592 q 0,0.1612307 0.0322461,0.2888716 0.0322461,0.1276409 0.10076917,0.2163178 0.068523,0.088677 0.17466654,0.1357025 0.10748711,0.047026 0.25662546,0.047026 0.0255282,0 0.0550871,-0.00269 0.029559,-0.00269 0.0591179,-0.00672 0.029559,-0.00537 0.0564307,-0.012092 0.0282154,-0.00672 0.0497128,-0.01478 V 2.2080668 H 0.64415266 V 2.0105593 H 1.2393625 v 0.8975173 q -0.055087,0.025528 -0.1168922,0.045682 -0.060461,0.020154 -0.12495379,0.03359 -0.0631487,0.013436 -0.12629735,0.020154 -0.0631487,0.00672 -0.12226658,0.00672 -0.1800409,0 -0.32514849,-0.056431 Q 0.28004009,2.9013587 0.17792734,2.7911844 0.07715818,2.6796665 0.02207104,2.5144051 -0.03167252,2.3491437 -0.03167252,2.1314823 q 0,-0.2163178 0.0604615,-0.3869536 Q 0.08925048,1.5725493 0.19808117,1.4543135 0.30825545,1.3347341 0.46142458,1.272929 0.61593729,1.20978 0.80135255,1.20978 q 0.11823581,0 0.22437935,0.021497 Q 1.133219,1.251431 1.231301,1.297113 Z M 2.6608795,2.9900355 H 1.662593 V 1.233965 H 2.6608795 V 1.4355033 H 1.9017518 V 1.9796567 H 2.6313205 V 2.1811951 H 1.9017518 V 2.78581 H 2.6608795 Z M 4.3027451,1.4381905 H 3.7827762 v 1.551845 H 3.5409302 V 1.4381905 H 3.0209613 V 1.233965 h 1.2817838 z"
       id="text1"
       style="font-size:2.75167px;font-family:Consolas;-inkscape-font-specification:'Consolas, Normal';fill:#1bb317;stroke-width:0.347755"
       transform="scale(0.99779557,1.0022093)"
       aria-label="GET" />
  </g>
</svg>
