<?xml version="1.0" encoding="UTF-8" standalone="no"?>
<!-- Created with Inkscape (http://www.inkscape.org/) -->

<svg
   width="15.999999"
   height="16"
   viewBox="0 0 4.233333 4.2333332"
   version="1.1"
   id="svg1"
   xmlns="http://www.w3.org/2000/svg"
   xmlns:svg="http://www.w3.org/2000/svg">
  <defs
     id="defs1" />
  <g
     id="layer1">
    <path
       d="m 1.2944496,2.0925182 q 0,0.1262974 -0.020154,0.241846 -0.01881,0.1155486 -0.061805,0.2149742 -0.042995,0.099426 -0.1115178,0.1813845 -0.068523,0.080615 -0.16794865,0.1383896 -0.0994256,0.057774 -0.23109728,0.090021 -0.1316717,0.030902 -0.2996203,0.030902 H 0.0261018 V 1.233965 h 0.45278943 q 0.41113818,0 0.61267647,0.212287 0.2028819,0.2109434 0.2028819,0.6462662 z m -0.2512511,0.017467 q 0,-0.1867589 -0.034933,-0.3157434 Q 0.97333191,1.665257 0.90212171,1.5859852 0.8309115,1.5067135 0.7234244,1.4717802 0.61593729,1.4355033 0.4708297,1.4355033 H 0.26526061 v 1.3476196 h 0.17869731 q 0.59924058,0 0.59924058,-0.6731377 z m 1.617681,0.8800506 H 1.662593 V 1.233965 H 2.6608795 V 1.4355033 H 1.9017518 V 1.9796567 H 2.6313205 V 2.1811951 H 1.9017518 V 2.78581 h 0.7591277 z m 1.5679682,0 H 3.2184689 V 1.233965 H 3.4616585 V 2.78581 h 0.7671892 z"
       id="text1"
       style="font-size:2.75167px;font-family:Consolas;-inkscape-font-specification:'Consolas, Normal';fill:#b33217;stroke-width:0.347755"
       transform="scale(0.99779557,1.0022093)"
       aria-label="DEL" />
  </g>
</svg>
