<?xml version="1.0" encoding="UTF-8" standalone="no"?>
<!-- Created with Inkscape (http://www.inkscape.org/) -->

<svg
   width="15.999999"
   height="16"
   viewBox="0 0 4.233333 4.2333332"
   version="1.1"
   id="svg1"
   xmlns="http://www.w3.org/2000/svg"
   xmlns:svg="http://www.w3.org/2000/svg">
  <defs
     id="defs1" />
  <g
     id="layer1">
    <path
       d="m 1.2447369,1.7714005 q 0,0.1074871 -0.040308,0.2136306 Q 1.1641215,2.089831 1.0794754,2.1731335 0.99482934,2.256436 0.86315763,2.308836 0.73148593,2.3598924 0.54875785,2.3598924 H 0.33109646 V 2.9900355 H 0.09193765 V 1.233965 h 0.49444069 q 0.13032811,0 0.24990752,0.029559 0.1195794,0.028215 0.20959984,0.092708 0.091364,0.064492 0.1451076,0.1666051 0.053744,0.1021127 0.053744,0.2485634 z m -0.24856398,0.010749 q 0,-0.1692922 -0.11151787,-0.2593126 Q 0.77448077,1.4328161 0.57562963,1.4328161 H 0.33109646 v 0.7228508 h 0.22303575 q 0.21228703,0 0.32649208,-0.092708 0.11554863,-0.092708 0.11554863,-0.2808094 z M 2.7603051,2.3787026 q 0,0.1451076 -0.041651,0.2633434 -0.040308,0.1168923 -0.1195794,0.2001948 -0.079272,0.081959 -0.1948204,0.1276409 -0.114205,0.044338 -0.2633434,0.044338 -0.1639178,0 -0.2781229,-0.042995 Q 1.7485827,2.9282304 1.6760289,2.8503023 1.6048187,2.7710306 1.571229,2.6608563 1.5389828,2.550682 1.5389828,2.4149795 V 1.233965 h 0.2391589 v 1.1622043 q 0,0.1034563 0.01881,0.1813845 0.020154,0.077928 0.064492,0.1303281 0.044338,0.0524 0.114205,0.079272 0.07121,0.026872 0.173323,0.026872 0.1907896,0 0.28081,-0.1101743 0.091364,-0.1101743 0.091364,-0.310369 V 1.233965 h 0.2391588 z m 1.54244,-0.9405121 H 3.7827762 v 1.551845 H 3.5409302 V 1.4381905 H 3.0209613 V 1.233965 h 1.2817838 z"
       id="text1"
       style="font-size:2.75167px;font-family:Consolas;-inkscape-font-specification:'Consolas, Normal';fill:#178bb3;stroke-width:0.347755"
       transform="scale(0.99779557,1.0022093)"
       aria-label="PUT" />
  </g>
</svg>
