<?xml version="1.0" encoding="UTF-8" standalone="no"?>
<!-- Created with Inkscape (http://www.inkscape.org/) -->

<svg
   width="15.999999"
   height="16"
   viewBox="0 0 4.233333 4.2333332"
   version="1.1"
   id="svg1"
   xmlns="http://www.w3.org/2000/svg"
   xmlns:svg="http://www.w3.org/2000/svg">
  <defs
     id="defs1" />
  <g
     id="layer1">
    <path
       d="M 1.2165215,2.9241997 Q 1.005578,3.011533 0.77448077,3.011533 q -0.3721741,0 -0.57236883,-0.2216922 -0.19885115,-0.2230357 -0.19885115,-0.6583585 0,-0.2109435 0.05508714,-0.3815792 0.05508715,-0.1706358 0.1571999,-0.2888716 0.10211274,-0.1195794 0.24722034,-0.1840717 0.14510759,-0.064492 0.32514849,-0.064492 0.12226658,0 0.22706654,0.021497 0.1047999,0.020154 0.2015383,0.063149 v 0.2351281 q -0.095395,-0.0524 -0.1975076,-0.079272 -0.10211272,-0.028215 -0.22303571,-0.028215 -0.12361017,0 -0.22437933,0.047026 -0.0994256,0.045682 -0.16929219,0.1343589 -0.0698666,0.087333 -0.1074871,0.2149742 -0.0376205,0.1262973 -0.0376205,0.2888716 0,0.3412715 0.13838965,0.5145945 0.13838964,0.1733229 0.40576382,0.1733229 0.11286146,0 0.21631776,-0.025528 0.1034564,-0.026872 0.1988512,-0.073897 z m 1.6149938,-0.82362 q 0,0.2364717 -0.056431,0.408451 -0.055087,0.1719794 -0.1504819,0.2848409 -0.094051,0.1115178 -0.2216922,0.166605 -0.1262973,0.053744 -0.2673741,0.053744 -0.1692922,0 -0.2955896,-0.060462 Q 1.714993,2.8919536 1.6316905,2.7764049 1.5497316,2.6608563 1.5094239,2.4955949 1.4691162,2.3289898 1.4691162,2.1207336 q 0,-0.2337845 0.055087,-0.4057638 0.055087,-0.1719794 0.1491383,-0.2834973 0.095395,-0.1128614 0.2216922,-0.166605 0.1262973,-0.055087 0.2673742,-0.055087 0.1692921,0 0.2942459,0.061805 0.1262973,0.061805 0.2095999,0.1773538 0.083302,0.114205 0.1236101,0.2794664 0.041651,0.1652615 0.041651,0.372174 z m -0.248564,0.017467 q 0,-0.1545127 -0.024185,-0.2821537 -0.022841,-0.1289845 -0.075241,-0.2216921 -0.0524,-0.092708 -0.1357025,-0.143764 -0.081959,-0.051056 -0.1988511,-0.051056 -0.1128615,0 -0.1948204,0.055087 -0.080615,0.053743 -0.1330153,0.1477947 -0.0524,0.092708 -0.077928,0.219005 -0.025528,0.1249538 -0.025528,0.2660306 0,0.1558563 0.024185,0.2848408 0.024185,0.127641 0.075241,0.2203486 0.0524,0.091364 0.1343589,0.1424204 0.081959,0.051056 0.1975076,0.051056 0.1128614,0 0.1948203,-0.053744 0.081959,-0.055087 0.1343589,-0.1477948 0.053744,-0.094051 0.079272,-0.2190049 0.025528,-0.1249538 0.025528,-0.2673736 z M 4.2597502,2.9900355 H 3.9480376 L 3.4361303,1.8950107 3.2883355,1.5429904 v 0.885425 0.5616201 H 3.0652998 V 1.233965 H 3.3729816 L 3.8607043,2.2712155 4.0367145,2.6729486 V 1.7324364 1.233965 h 0.2230357 z"
       id="text1"
       style="font-size:2.75167px;font-family:Consolas;-inkscape-font-specification:'Consolas, Normal';fill:#b317a0;stroke-width:0.347755"
       transform="scale(0.99779557,1.0022093)"
       aria-label="CON" />
  </g>
</svg>
