<?xml version="1.0" encoding="UTF-8" standalone="no"?>
<!-- Created with Inkscape (http://www.inkscape.org/) -->

<svg
   width="15.999999"
   height="16"
   viewBox="0 0 4.233333 4.2333332"
   version="1.1"
   id="svg1"
   xmlns="http://www.w3.org/2000/svg"
   xmlns:svg="http://www.w3.org/2000/svg">
  <defs
     id="defs1" />
  <g
     id="layer1">
    <path
       d="m 1.2447369,1.7714005 q 0,0.1074871 -0.040308,0.2136306 Q 1.1641215,2.089831 1.0794754,2.1731335 0.99482934,2.256436 0.86315763,2.308836 0.73148593,2.3598924 0.54875785,2.3598924 H 0.33109646 V 2.9900355 H 0.09193765 V 1.233965 h 0.49444069 q 0.13032811,0 0.24990752,0.029559 0.1195794,0.028215 0.20959984,0.092708 0.091364,0.064492 0.1451076,0.1666051 0.053744,0.1021127 0.053744,0.2485634 z m -0.24856398,0.010749 q 0,-0.1692922 -0.11151787,-0.2593126 Q 0.77448077,1.4328161 0.57562963,1.4328161 H 0.33109646 v 0.7228508 h 0.22303575 q 0.21228703,0 0.32649208,-0.092708 0.11554863,-0.092708 0.11554863,-0.2808094 z M 2.8315153,2.1005797 q 0,0.2364717 -0.056431,0.408451 -0.055087,0.1719794 -0.1504819,0.2848409 -0.094051,0.1115178 -0.2216922,0.166605 -0.1262973,0.053744 -0.2673741,0.053744 -0.1692922,0 -0.2955896,-0.060462 Q 1.714993,2.8919536 1.6316905,2.7764049 1.5497316,2.6608563 1.5094239,2.4955949 1.4691162,2.3289898 1.4691162,2.1207336 q 0,-0.2337845 0.055087,-0.4057638 0.055087,-0.1719794 0.1491383,-0.2834973 0.095395,-0.1128614 0.2216922,-0.166605 0.1262973,-0.055087 0.2673742,-0.055087 0.1692921,0 0.2942459,0.061805 0.1262973,0.061805 0.2095999,0.1773538 0.083302,0.114205 0.1236101,0.2794664 0.041651,0.1652615 0.041651,0.372174 z m -0.248564,0.017467 q 0,-0.1545127 -0.024185,-0.2821537 -0.022841,-0.1289845 -0.075241,-0.2216921 -0.0524,-0.092708 -0.1357025,-0.143764 -0.081959,-0.051056 -0.1988511,-0.051056 -0.1128615,0 -0.1948204,0.055087 -0.080615,0.053743 -0.1330153,0.1477947 -0.0524,0.092708 -0.077928,0.219005 -0.025528,0.1249538 -0.025528,0.2660306 0,0.1558563 0.024185,0.2848408 0.024185,0.127641 0.075241,0.2203486 0.0524,0.091364 0.1343589,0.1424204 0.081959,0.051056 0.1975076,0.051056 0.1128614,0 0.1948203,-0.053744 0.081959,-0.055087 0.1343589,-0.1477948 0.053744,-0.094051 0.079272,-0.2190049 0.025528,-0.1249538 0.025528,-0.2673736 z m 1.6620194,0.3963587 q 0,0.1249538 -0.051056,0.219005 -0.051056,0.094051 -0.1424204,0.1571999 -0.091364,0.061805 -0.2203486,0.092708 -0.1276409,0.030903 -0.2821537,0.030903 -0.069867,0 -0.1397332,-0.00537 -0.068523,-0.00537 -0.1330153,-0.013436 -0.063149,-0.00806 -0.1195794,-0.01881 -0.056431,-0.010749 -0.1021127,-0.022841 V 2.7226614 q 0.1007691,0.03762 0.2257229,0.059118 0.1262973,0.021497 0.2861844,0.021497 0.1155486,0 0.196164,-0.017467 0.081959,-0.01881 0.1330153,-0.053743 0.0524,-0.036277 0.075241,-0.087333 0.024185,-0.051056 0.024185,-0.1168922 0,-0.07121 -0.040308,-0.120923 Q 3.9157915,2.3558616 3.8512992,2.3168975 3.786807,2.2765899 3.7035045,2.2443437 3.6215455,2.210754 3.5355559,2.1758207 3.4495662,2.1408874 3.3662637,2.1005797 3.2843047,2.0589285 3.2198125,2.0038413 3.1553202,1.9474106 3.1150126,1.8721696 3.0760485,1.7969287 3.0760485,1.6934723 q 0,-0.09002 0.03762,-0.1773537 0.037621,-0.087333 0.1168922,-0.1545127 0.079272,-0.068523 0.2028819,-0.1101743 0.1249538,-0.041651 0.2969331,-0.041651 0.044339,0 0.095395,0.00403 0.0524,0.00403 0.1048,0.012092 0.053743,0.00672 0.1047999,0.016123 0.0524,0.00941 0.096738,0.020154 V 1.4771545 Q 4.0286529,1.4475956 3.9251966,1.4328161 3.8217403,1.416693 3.7250019,1.416693 q -0.2055691,0 -0.3023075,0.068523 -0.096738,0.068523 -0.096738,0.1840716 0,0.07121 0.038964,0.1222666 0.040308,0.051056 0.1047999,0.091364 0.064492,0.040308 0.1464512,0.073897 0.083302,0.032246 0.1692922,0.067179 0.08599,0.034933 0.1679486,0.076585 0.083303,0.041651 0.1477947,0.099426 0.064492,0.056431 0.1034564,0.1330153 0.040308,0.076585 0.040307,0.1813849 z"
       id="text1"
       style="font-size:2.75167px;font-family:Consolas;-inkscape-font-specification:'Consolas, Normal';fill:#178bb3;stroke-width:0.347755"
       transform="scale(0.99779557,1.0022093)"
       aria-label="POS" />
  </g>
</svg>
