<?xml version="1.0" encoding="UTF-8" standalone="no"?>
<!-- Created with Inkscape (http://www.inkscape.org/) -->

<svg
   width="15.999999"
   height="16"
   viewBox="0 0 4.233333 4.2333332"
   version="1.1"
   id="svg1"
   xmlns="http://www.w3.org/2000/svg"
   xmlns:svg="http://www.w3.org/2000/svg">
  <defs
     id="defs1" />
  <g
     id="layer1">
    <path
       d="M 1.2447369,2.9900355 H 1.005578 V 2.1838822 H 0.26794779 V 2.9900355 H 0.02878898 V 1.233965 H 0.26794779 V 1.9769696 H 1.005578 V 1.233965 h 0.2391589 z m 1.4161426,0 H 1.662593 V 1.233965 H 2.6608795 V 1.4355033 H 1.9017518 V 1.9796567 H 2.6313205 V 2.1811951 H 1.9017518 V 2.78581 H 2.6608795 Z M 4.3202117,2.0925182 q 0,0.1262974 -0.020154,0.241846 -0.01881,0.1155486 -0.061805,0.2149742 Q 4.195258,2.648764 4.1267349,2.7307229 4.0582119,2.8113382 3.9587863,2.8691125 3.8593608,2.9268869 3.7276891,2.959133 3.5960174,2.9900355 3.4280688,2.9900355 H 3.0518639 V 1.233965 h 0.4527894 q 0.4111382,0 0.6126765,0.212287 0.2028819,0.2109434 0.2028819,0.6462662 z m -0.2512511,0.017467 q 0,-0.1867589 -0.034933,-0.3157434 Q 3.999094,1.665257 3.9278838,1.5859852 3.8566736,1.5067135 3.7491865,1.4717802 3.6416994,1.4355033 3.4965918,1.4355033 H 3.2910227 V 2.7831229 H 3.46972 q 0.5992406,0 0.5992406,-0.6731377 z"
       id="text1"
       style="font-size:2.75167px;font-family:Consolas;-inkscape-font-specification:'Consolas, Normal';fill:#1bb317;stroke-width:0.347755"
       transform="scale(0.99779557,1.0022093)"
       aria-label="HED" />
  </g>
</svg>
