<?xml version="1.0" encoding="UTF-8" standalone="no"?>
<!-- Created with Inkscape (http://www.inkscape.org/) -->

<svg
   width="15.999999"
   height="16"
   viewBox="0 0 4.233333 4.2333332"
   version="1.1"
   id="svg1"
   xmlns="http://www.w3.org/2000/svg"
   xmlns:svg="http://www.w3.org/2000/svg">
  <defs
     id="defs1" />
  <g
     id="layer1">
    <path
       d="m 1.2192087,2.5144051 q 0,0.1249538 -0.051056,0.219005 Q 1.1170967,2.8274611 1.0257323,2.89061 0.9343682,2.952415 0.80538371,2.983318 0.67774278,3.014221 0.52323006,3.014221 q -0.0698666,0 -0.13973323,-0.00537 Q 0.31497383,3.003481 0.25048153,2.995415 0.18733283,2.987355 0.13090213,2.976605 0.074471,2.9658509 0.02878898,2.9537586 V 2.7226614 q 0.10076916,0.03762 0.22572292,0.059118 0.12629735,0.021497 0.28618442,0.021497 0.11554864,0 0.19616396,-0.017467 0.0819589,-0.01881 0.1330153,-0.053743 0.0524,-0.036277 0.075241,-0.087333 0.0241846,-0.051056 0.0241846,-0.1168922 0,-0.07121 -0.0403077,-0.120923 Q 0.89002941,2.3558616 0.82553715,2.3168975 0.76104488,2.2765899 0.67774238,2.2443437 0.59578346,2.210754 0.50979377,2.1758207 0.42380409,2.1408874 0.34050158,2.1005797 0.25854267,2.0589285 0.1940504,2.0038413 0.12955814,1.9474106 0.08925048,1.8721696 0.0502864,1.7969287 0.0502864,1.6934723 q 0,-0.09002 0.03762049,-0.1773537 0.03762048,-0.087333 0.11689222,-0.1545127 0.0792717,-0.068523 0.20288192,-0.1101743 0.12495375,-0.041651 0.29693312,-0.041651 0.0443384,0 0.0953948,0.00403 0.0524,0.00403 0.10479992,0.012092 0.0537436,0.00672 0.10479993,0.016123 0.0524,0.00941 0.096738,0.020154 V 1.4771545 Q 1.0028909,1.4475956 0.89943453,1.4328161 0.79597819,1.416693 0.6992398,1.416693 q -0.20556909,0 -0.30230749,0.068523 -0.0967384,0.068523 -0.0967384,0.1840716 0,0.07121 0.0389641,0.1222666 0.0403077,0.051056 0.10479992,0.091364 0.0644923,0.040308 0.14645118,0.073897 0.0833025,0.032246 0.16929219,0.067179 0.0859897,0.034933 0.1679486,0.076585 0.0833025,0.041651 0.1477948,0.099426 0.064492,0.056431 0.1034563,0.1330153 0.040308,0.076585 0.040308,0.1813846 z M 2.8046435,2.9900355 H 2.5345822 L 2.2725823,2.4284154 Q 2.2430234,2.3639231 2.2121208,2.3222719 2.1812183,2.2792771 2.1449414,2.2550925 2.1100081,2.2295643 2.0670132,2.2188156 2.025362,2.2080668 1.972962,2.2080668 H 1.8601006 V 2.9900355 H 1.6209418 V 1.233965 h 0.470256 q 0.1531692,0 0.2633435,0.03359 0.1101742,0.03359 0.1800409,0.094051 0.07121,0.060461 0.1034563,0.1464512 0.03359,0.084646 0.03359,0.1881024 0,0.081959 -0.024185,0.1558563 -0.024185,0.072554 -0.072554,0.1330153 -0.047026,0.059118 -0.1182358,0.1034563 -0.069867,0.042995 -0.1612307,0.064492 0.073897,0.025528 0.1249538,0.090021 0.0524,0.063149 0.1061435,0.1692921 z M 2.4217207,1.7163133 q 0,-0.1410768 -0.088677,-0.2109434 -0.087333,-0.069867 -0.2472203,-0.069867 H 1.8601006 v 0.5804303 h 0.1934768 q 0.084646,0 0.1518255,-0.01881 0.068523,-0.020154 0.1155486,-0.057774 0.048369,-0.038964 0.073897,-0.094051 0.026872,-0.056431 0.026872,-0.1289849 z M 4.2422836,2.9241997 Q 4.0313401,3.011533 3.8002429,3.011533 3.4280688,3.011533 3.227874,2.7898408 3.0290229,2.5668051 3.0290229,2.1314823 q 0,-0.2109435 0.055087,-0.3815792 0.055087,-0.1706358 0.1571999,-0.2888716 0.1021128,-0.1195794 0.2472203,-0.1840717 0.1451076,-0.064492 0.3251485,-0.064492 0.1222666,0 0.2270665,0.021497 0.1048,0.020154 0.2015384,0.063149 v 0.2351281 q -0.095395,-0.0524 -0.1975076,-0.079272 -0.1021127,-0.028215 -0.2230357,-0.028215 -0.1236102,0 -0.2243794,0.047026 -0.099426,0.045682 -0.1692921,0.1343589 -0.069867,0.087333 -0.1074872,0.2149742 -0.03762,0.1262973 -0.03762,0.2888716 0,0.3412715 0.1383896,0.5145945 0.1383897,0.1733229 0.4057638,0.1733229 0.1128615,0 0.2163178,-0.025528 0.1034564,-0.026872 0.1988512,-0.073897 z"
       id="text1"
       style="font-size:2.75167px;font-family:Consolas;-inkscape-font-specification:'Consolas, Normal';fill:#1bb317;stroke-width:0.347755"
       transform="scale(0.99779557,1.0022093)"
       aria-label="SRC" />
  </g>
</svg>
