<?xml version="1.0" encoding="UTF-8" standalone="no"?>
<!-- Created with Inkscape (http://www.inkscape.org/) -->

<svg
   width="15.999999"
   height="16"
   viewBox="0 0 4.233333 4.2333332"
   version="1.1"
   id="svg1"
   xmlns="http://www.w3.org/2000/svg"
   xmlns:svg="http://www.w3.org/2000/svg">
  <defs
     id="defs1" />
  <g
     id="layer1">
    <path
       d="m 1.3186342,2.1005797 q 0,0.2364717 -0.056431,0.408451 -0.055087,0.1719794 -0.1504819,0.2848409 -0.094051,0.1115178 -0.22169219,0.166605 -0.12629735,0.053744 -0.26737418,0.053744 -0.16929219,0 -0.29558953,-0.060462 Q 0.20211194,2.8919536 0.11880943,2.7764049 0.03685051,2.6608563 -0.00345715,2.4955949 -0.04376482,2.3289898 -0.04376482,2.1207336 q 0,-0.2337845 0.05508715,-0.4057638 0.05508714,-0.1719794 0.14913835,-0.2834973 0.0953948,-0.1128614 0.22169216,-0.166605 0.12629735,-0.055087 0.26737417,-0.055087 0.16929219,0 0.29424595,0.061805 0.12629734,0.061805 0.20959984,0.1773538 0.083302,0.114205 0.1236102,0.2794664 0.041651,0.1652615 0.041651,0.372174 z m -0.2485639,0.017467 q 0,-0.1545127 -0.024185,-0.2821537 -0.022841,-0.1289845 -0.075241,-0.2216921 -0.0524,-0.092708 -0.13570247,-0.143764 -0.0819589,-0.051056 -0.19885115,-0.051056 -0.11286146,0 -0.19482037,0.055087 -0.0806153,0.053743 -0.1330153,0.1477947 -0.0524,0.092708 -0.0779281,0.219005 -0.0255282,0.1249538 -0.0255282,0.2660306 0,0.1558563 0.0241846,0.2848408 0.0241846,0.127641 0.075241,0.2203486 0.0524,0.091364 0.13435888,0.1424204 0.0819589,0.051056 0.19750755,0.051056 0.11286146,0 0.19482038,-0.053744 Q 0.91287002,2.697133 0.96527,2.6044252 1.0190135,2.5103742 1.0445417,2.3854203 1.0700697,2.2604665 1.0700703,2.1180467 Z M 2.7576179,1.7714005 q 0,0.1074871 -0.040308,0.2136306 Q 2.6770026,2.089831 2.5923565,2.1731335 2.5077104,2.256436 2.3760387,2.308836 2.244367,2.3598924 2.0616389,2.3598924 H 1.8439775 V 2.9900355 H 1.6048187 V 1.233965 h 0.4944407 q 0.1303281,0 0.2499075,0.029559 0.1195794,0.028215 0.2095999,0.092708 0.091364,0.064492 0.1451075,0.1666051 0.053744,0.1021127 0.053744,0.2485634 z M 2.509054,1.7821492 q 0,-0.1692922 -0.1115179,-0.2593126 Q 2.2873618,1.4328161 2.0885107,1.4328161 H 1.8439775 v 0.7228508 h 0.2230357 q 0.2122871,0 0.3264921,-0.092708 Q 2.509054,1.9702516 2.509054,1.7821492 Z M 4.3027451,1.4381905 H 3.7827762 v 1.551845 H 3.5409302 V 1.4381905 H 3.0209613 V 1.233965 h 1.2817838 z"
       id="text1"
       style="font-size:2.75167px;font-family:Consolas;-inkscape-font-specification:'Consolas, Normal';fill:#b317a0;stroke-width:0.347755"
       transform="scale(0.99779557,1.0022093)"
       aria-label="OPT" />
  </g>
</svg>
